<svg xmlns="http://www.w3.org/2000/svg" viewBox="0 0 526.76 878.47"><defs><style>.cls-1{fill:#e6e7e8;}.cls-2{fill:#f9453e;}.cls-3{fill:#fff;}.cls-4{fill:#ff8392;}</style></defs><g id="Layer_2" data-name="Layer 2"><g id="Characters"><g id="Character_04"><ellipse class="cls-1" cx="302.23" cy="856.9" rx="224.54" ry="21.56"/><path d="M401.71,829.07c1.74,10.57,2.76,17.07,2.76,17.07l-26.28,13.52h34.6l2.49-30.59Z"/><path d="M460.6,820.89a91,91,0,0,1,.77,20.64l-6.64,12.74-14.59,5.39,24.13-1.14L474,841.58l-1.17-25.16Z"/><path class="cls-1" d="M469.05,811.94,432.4,667.3l6.74-54,8.37-65L429.58,512.6l-69.34,15.73c-3.59,102.77,26.3,295.73,26.3,295.73h26.3l5.91-47.36c14.91,24.18,27.58,43.63,27.58,43.63Z"/><path d="M454.58,824.69l-.64-.83c-.35-.45-8.69-11.35-27.66-49.84l-.19-.38,15.23-122.06L479.46,815.5ZM429,773.14c15.86,32.13,24.32,44.93,26.55,48.12l20.51-7.58L442.17,667.89Z"/><path d="M421.86,830.7h-28.8l-.19-1.21c-.3-1.93-29.87-194.27-26.32-296l0-1.1,71.51-16.22,18.64,37.05-8.43,65.45Zm-26.34-2.86h23.81l26.14-209.53,8.32-64.59-17.24-34.26L369.38,534.7C366.23,632.18,393,811.33,395.52,827.84Z"/><path class="cls-2" d="M240.55,755.82c-8.68,45.46-15.68,90.32-15.68,90.32l26.27,13.52h-34.6l-8.4-98.44Z"/><path class="cls-2" d="M202.74,772c-34.31,31.07-45.92,55.37-45.92,55.37l5.84,24.15,12.19,6-18.21-.14L142,831.45l31.69-82Z"/><path class="cls-3" d="M246.22,567.12c12.9,61.51,25.33,206.94,19.71,214.14,0,0-82,23.79-143.17-9.07l37.38-133.92-2.29-22.56a60.58,60.58,0,0,1,7.88-36.53l3.72-6.4Z"/><path d="M206.27,786.19c-25.18,0-53.91-4-79-17.46l-1-.55.31-1.1,37.31-133.66-2.27-22.29a61.68,61.68,0,0,1,8.08-37.4l4.09-7.05,79-5.82.1,1.43c5.13,70.54,19.57,212.67,19.72,214.09l.12,1.19-1.15.34A263.36,263.36,0,0,1,206.27,786.19Zm-76.66-19.45c56,29.36,129.87,11.39,139.94,8.73-1.41-13.94-14.53-144-19.49-211.54l-74.59,5.5-3.34,5.74a58.75,58.75,0,0,0-7.69,35.67l2.31,22.83Z"/><path d="M233.88,554.41c6.79,67,12.82,134,20.36,200.93C248.85,690.54,242.37,617.68,233.88,554.41Z"/><path d="M213.74,749.61c2-70.12,2.6-150.74.87-220.13C214.26,602.86,213.34,676.24,213.74,749.61Z"/><path d="M169.45,770.06c16.76-68.8,26-141.47,24.75-211.07C194.55,629.57,183.76,702.18,169.45,770.06Z"/><path d="M158.68,715.42c10-48.5,20.7-106.83,27.48-155.44C177,611.8,167.43,663.55,158.68,715.42Z"/><path class="cls-3" d="M414,113.41C354.39,66.05,299.55,127,299.55,127c-17.16,10.89-23.31,33.54-21.6,53.79s.35,7.43,5.37,27.12,16.19,73.6,6.29,91.35l23.52-18.79s10.21,60.85,26,58.85c8.54-1.08,26.47-14,35.11-31.34,10.06,8,18.34,23.89,18.34,23.89l27.5-24.44-7-36q6.5-8,12.72-16.27S473.56,160.77,414,113.41Z"/><path d="M341.65,342.06c-14.82,0-24-45.5-26.26-57.7l-19.71,15.75a2,2,0,0,1-3.1-2.32c7.36-18-1.18-64-7.39-88.27-1.83-7.16-2.8-10-3.38-11.67-.95-2.73-1-2.9-1.67-11.34l-.36-4.34c-1.59-18.75,3.39-43,22.1-55a113.46,113.46,0,0,1,35.22-24.77c19.67-8.66,49.69-13.75,81,11.16h0c40.41,32.12,31.79,85.93,23.05,115.14A130,130,0,0,1,417.87,273l7,36.18-29.48,26.2-.85-1.62c-.07-.15-7.52-14.3-16.61-22.32-9.2,17.12-26.85,29.44-35.39,30.52A7.22,7.22,0,0,1,341.65,342.06Zm-24.25-63,.4,2.41c2.77,16.54,12.51,59.18,24.41,57.66,8-1,25.64-13.72,34-30.56L377,307l1.38,1.11c8.39,6.68,15.43,18.45,17.84,22.74l25.54-22.7-7-35.88.42-.52a127.15,127.15,0,0,0,23.21-43.89c8.53-28.52,17-81-22.09-112.08h0C392.08,96.5,365.81,92.88,338.25,105a112.22,112.22,0,0,0-34.37,24.2l-.3.25c-17.76,11.27-22.47,34.49-20.95,52.46l.37,4.34c.69,8.25.69,8.25,1.51,10.65.6,1.73,1.6,4.61,3.46,11.9.66,2.6,15.62,61.8,8.26,87.18Z"/><path class="cls-2" d="M450.75,109.21c-9.12-10.47-21.78-18-35.55-19.28-34.87-21.92-89.07-12.3-111,21.66-15.9,11.92-58.95,10.57-57.25,11.46,9,27.16,50.82,49.8,77.39,37.7,3.13,9.94,10.21,18.65,21,20.86,5.43,9.29,3.85,37.64,23.1,43.3-.28-5.5-1.22-9,.75-23,12.45-38.11,59.36-19.41,25.49,50.4-2.91,6.16,3.17,16.7,9.2,20.85-6.58,28,32.09,31.48,18.16,18.43,3-22.12,21.81-36.4,32.34-55C474.3,199.48,478.1,143.67,450.75,109.21Z"/><ellipse class="cls-4" cx="325.62" cy="241.07" rx="11.25" ry="15.53" transform="translate(-65.19 134.23) rotate(-21.22)"/><path d="M344.42,266.16c-1.2-.59-20.8-1.93-15.13,1.39l10.38.16c2.31,16.11-5.85,33.38-21.19,40-5.68,13.36,31.56-11.8,22.13-40C341.69,267.74,345.75,268.05,344.42,266.16Z"/><path d="M315.18,241.23a86.69,86.69,0,0,1-14.79-24.6C309.53,219.3,317.11,231.9,315.18,241.23Z"/><path d="M319.1,192.57c-11.47-6-27-6.73-38.15.29-1.37.66-4.24,3.54-1.56,4.26,11.13-7.72,26.47-8.91,38.93-3.23.89.42,1.66-.86.78-1.32Z"/><path d="M407.32,203.92c-5.6-39.48-46.66-20.42-36.5,19.59.11.83,1.44.85,1.33,0-9.22-37.68,26.86-55.93,33.19-21.63,2,16.85-.85,43.12-22.11,44.64-.87-19.1-2.14,12.72-1.15,17,2.69,1.28.74-13.09,1.18-15.44C405.13,249.31,408.93,220.5,407.32,203.92Z"/><path d="M398.63,201.08a5,5,0,0,0-1.16-2.17,9.55,9.55,0,0,1,1.22,2.39Z"/><path d="M386.47,232.67c3.36,1-6.77-10.74-3.09-15.81,1.3,3.82,6.49,6.45,9.92,3.68,5.42-5.54-4.62-13.35-9.34-7.52-1.94-7.65,5-20.6,13.51-14.11-5.28-7.4-18.3,2.43-14.78,15.74C379,220.54,382.33,228,386.47,232.67Zm3.64-19.86c9.08,6-3.81,11.37-5.75,2.24C385.66,213.29,387.92,211.91,390.11,212.81Z"/><path d="M395.59,207.64a4.84,4.84,0,0,0,3.1-6.34A5.73,5.73,0,0,1,395.59,207.64Z"/><path d="M381.35,292.7c-.31,8.75-5,16.19-8.77,23.65C376.14,321.74,386.14,288.76,381.35,292.7Z"/><path class="cls-3" d="M275.62,283.51c-23.23-8.93-44.88-19.57-50.2-45.3-6.54-31.63-50-66.1-83.8-50.83-97.06,33.81-63.7,123.88-16.54,153.35l.39.24a122,122,0,0,1,53,69.29l.08.27,39.55,4.36s-5.66-29.8,5.52-51.83c13.2-2.53,33.78-6.7,39.46-10.6,17.45-12,1.63-48.81,1.63-48.81C270.31,300.84,278,284.41,275.62,283.51Z"/><path d="M218.26,419.08l-42.42-4.67-.35-1.19a120.41,120.41,0,0,0-52.35-68.47l-.39-.25c-25.49-15.93-50.35-52.74-46.22-89.57,2.36-21.07,15.22-49.69,63-66.35,13.28-6,29.4-4.88,45.27,3.22,20.28,10.33,36.52,29.89,40.41,48.68,5.24,25.37,27.23,35.77,49.3,44.24h0a2.21,2.21,0,0,1,1.35,2.16c.2,4-5.84,16.07-11,19.89,2.6,6.51,14,38-2.6,49.42-5.59,3.84-23.81,7.72-39.31,10.7-10.4,21.27-5.13,50-5.08,50.29Zm-40.21-7.31,36.72,4.05c-1.05-7-3.8-31.59,6-50.86l.32-.62.69-.14c9-1.72,33-6.31,38.91-10.37,16.3-11.2,1.28-46.7,1.13-47.06l-.53-1.24,1.2-.61c4.71-2.35,10.55-14.93,10.6-17.7-22.65-8.73-45.12-19.56-50.62-46.16-3.66-17.7-19.66-36.91-38.9-46.71-15.08-7.69-30.32-8.79-42.91-3.11-46.53,16.22-59,43.75-61.25,64-4,35.67,20.14,71.35,44.89,86.82l.38.24A123.32,123.32,0,0,1,178.05,411.77ZM273.52,287.4h0Z"/><path d="M201.41,253.19c1.2-12.14,8.08-24.23,18.19-31.16a1.69,1.69,0,1,0-2-2.66,45.73,45.73,0,0,0-12.69,15c-1.54,1.43-8,22.86-3.45,18.79Z"/><path d="M236.45,317.77c7.68,7.92,21.61,10.52,31.37,5a1.48,1.48,0,0,0,0-2.53c-10,3.29-21.88,4.58-30.68-3.13-.48-.38-1.14.23-.69.7Z"/><ellipse class="cls-4" cx="220.65" cy="289.01" rx="15.15" ry="16.35" transform="translate(-89.66 99.48) rotate(-21.22)"/><path d="M224.62,266.86c4-3,7.28-15.28,7.14-14.46a63.26,63.26,0,0,0-7.14,10.53c-.6,1-.87,1.87-1.85,2a36.61,36.61,0,0,0-8.13-5.88c.45,5.4,11.93,18.89,17.07,20.18C231.91,279.55,229.16,271.64,224.62,266.86Z"/><path d="M196.41,343.16c-58.51,3.59-56.15-45.66-16.53-26.47,4-1.49-16.28-8.2-18.5-6.46-13.71.83-16.67,18-6.18,25.49,11.42,8.58,27.49,12.29,41.4,8.82A.71.71,0,0,0,196.41,343.16Z"/><path d="M179,325.9c-4.32-9.62-21.34-9.16-19.86,3,.11.5.83.28.75-.21-.73-10.37,13.8-10.75,17.58-2.58-4,.64-7.69,2.61-7.44,7.07,2,9.35,13.88,1.26,9.64-5.87,5.64-.72,12.87,3.2,10.23,9.69a.5.5,0,0,0,.82.48C195.54,330.41,185.51,324.56,179,325.9Zm-.29,3.17c2,4.4-4.75,10-7.13,4.7-.87-3.83,3.25-6.18,6.56-6.39A10.18,10.18,0,0,1,178.75,329.07Z"/><path class="cls-2" d="M160.22,381.54c41.61-3.49,72.52,18.61,72.52,18.61V413s27.6,37.81,28.79,45.95-2.39,32.56-1.2,41.87-1.7,72.32-1.7,72.32l-89.18-.31L181.1,522.7s-15.59-79.6-18-87.74S160.22,381.54,160.22,381.54Z"/><path d="M438.74,304.84s18.31,25.54,22.93,46.57c1.13,5.17,4.24,114.38,5.6,120.74s16.64,87.79,16.64,87.79-98.6,25.42-140.29,4.33c0,0,20.38-142.95,20.38-151.42s13.59-71,13.59-71L367.72,333h0a106.75,106.75,0,0,1,62.12-45.51Z"/><path d="M256.73,400.38c.26-39-43-45.64-59.82-73.63-.9-25.05,15.43-50.84,7.72-76.63,6.39-11.57,10-26,3.81-38.36,11.67,10.08,16.87,42.76,17.49,40.18,14.36-9.16,15.32-33.78,5.29-46.07,13.28,6.44,17.89,24.95,11.52,37.27,12.1-18.72-.7-38.95-21-43.71,13.12-13.18,5.61-36-12-40.88-9.86-3.83-19.92.32-28.69,2.55-44.83-13.43-95.33,1.28-106,55.88-3.1-19.45,9.09-44.14,24.62-53.77-23.85,12.31-29.75,36.88-25.9,61.6-15,.51-28.78,14.45-29.89,28.71,3.07-11.8,13.83-23.14,26.55-25.79-27.56,22.39-24.27,51.12-23.33,79.64-.61,25.56,10.57,51.35,33.74,61.89,16.33,20.55,14.76,31.1,6.3,53.32C70.09,469.76,57.54,519,109.06,548c5.49,28.53,34.58,59.68,59.51,29.44,19.15-6.3,33.46-26.67,23.13-46.95-5.2-10.12,13.48-45.49-14.18-77.08-16.21-19.07-7.35-53.56,18.75-56.57,16.13,12,29.6,13,27.61,51.35C220.11,531.84,301.2,503.65,256.73,400.38ZM71.59,362.12c-15.46-13.27-22-33-21.82-54.09,7.69,29.27,21.91,50.77,29.87,59.7A47.22,47.22,0,0,1,71.59,362.12ZM80.73,518.5c-17.12-37.22,5.36-78,14.45-114.41,3.07,42.31-36.75,83,7.13,137.51A53.33,53.33,0,0,1,80.73,518.5Zm85.56,59.66c-23.3,23.74-46.84-2-53.68-26.35,11.81,17.55,29.27,32.68,53.76,26.26ZM209,160.91c16.27,4.9,23,25.41,11.49,38.19-.5-.11-1-.21-1.5-.28,11.32-20.23-5.63-38.38-27.58-38.8A32.3,32.3,0,0,1,209,160.91ZM236,366.3c-14-11.05-31.16-18.53-37.19-32.9C214.58,355.59,250,363.66,254,394,248.64,382,242.38,371.93,236,366.3Z"/><path class="cls-3" d="M308.43,551.54l21.12.36,5.23,10.51,11.83,11.45s-21,5.86-26.33,2.44-20.2-13.54-20.2-13.54Z"/><path d="M326,578.41c-2.62,0-4.87-.34-6.25-1.23-5.23-3.39-20.06-13.45-20.21-13.55l-.9-.61,9.31-12.53,22.29.38,5.43,10.91,13,12.6-1.76.49C345.24,575.33,333.87,578.41,326,578.41Zm-24.39-15.9c3.31,2.24,14.81,10,19.28,12.91,3.65,2.36,17-.38,23.71-2.09l-10.71-10.46-5-9.94-20-.34Z"/><path class="cls-3" d="M176.3,437.69c-16.2-60.28,47-38.64,52.87-13.71,2.37,10.11,34.5,90.43,83.6,127.34l-8.68,14.53S206.89,551.53,176.3,437.69Z"/><path class="cls-2" d="M180.72,437.69c-16.2-60.28,42.86-34.47,48.7-9.53,2.37,10.1,38.68,86.25,87.78,123.16l-8.68,19.75S211.32,551.53,180.72,437.69Z"/><path class="cls-3" d="M345.41,541.86l-21.11,9.95,3.16,9.06-7.18,15.43s6,6.13,13.37,6.13l19.15-7.83L368,533.54Z"/><path d="M333.86,583.48h-.21c-7.74,0-13.86-6.19-14.12-6.45l-.5-.52,7.31-15.69L323,551.27l22-10.38,24.7-9.11-16.13,43.61Zm-12.32-7.42c1.54,1.38,6.34,5.24,11.91,5.33L352,573.81l14.24-38.5-20.4,7.52-20.22,9.52,3,8.58Z"/><path d="M333.46,568c-.64,1.67-12.64,12.76-7.34,11.63C326.73,578.27,337.36,566.88,333.46,568Z"/><path d="M340.27,571c-.49,1.82-9.92,13-4.73,11.53C336.12,581.19,345.54,568.38,340.27,571Z"/><path class="cls-3" d="M388.16,373c-7.87,55.09-48.84,175.21-48.84,175.21l20.75,12.44S418.79,451.73,438,409.11a28.8,28.8,0,0,0,2.44-9.56c.71-9.18,2-28.45.64-33.86-3.37-13.46-14.46-17.84-25.5-18.64C401.66,346,390.58,356,388.16,373Z"/><path d="M391.9,367.19c-11.44,52.49-55,179.92-55,179.92l20.76,12.45S404.27,473.1,428,424.11a111.11,111.11,0,0,0,11.1-44.65c.21-6.37.17-12.2-.48-14.82-2.76-11-9.67-15.7-17.22-17.22C407.89,344.69,394.83,353.73,391.9,367.19Z"/><path class="cls-2" d="M137.64,40.44c-6-2.15-10.64-9.32-12-18.5h0c-1.4,9.19-6.07,16.36-12,18.51h0c6,2.15,10.65,9.32,12,18.5h0c1.4-9.18,6.07-16.35,12-18.5Z"/><path class="cls-2" d="M233.88,125.57c-7.12-2.56-12.67-11.09-14.34-22h0c-1.67,10.94-7.22,19.47-14.34,22h0c7.12,2.56,12.67,11.1,14.34,22h0c1.67-10.93,7.22-19.47,14.34-22Z"/><path class="cls-2" d="M301.57,17.9c-5-1.78-8.86-7.75-10-15.39h0c-1.17,7.64-5.05,13.61-10,15.39h0c5,1.79,8.85,7.76,10,15.4h0c1.16-7.64,5.05-13.61,10-15.4Z"/><path class="cls-2" d="M485.49,90.85c-7.12-2.56-12.68-11.09-14.34-22h0c-1.67,10.93-7.22,19.46-14.34,22h0c7.12,2.56,12.67,11.1,14.34,22h0c1.66-10.93,7.22-19.47,14.34-22Z"/><path class="cls-2" d="M32,132.64c-5.5-2-9.8-8.57-11.08-17h0c-1.29,8.45-5.59,15-11.09,17h0c5.5,2,9.8,8.58,11.09,17h0c1.28-8.45,5.58-15,11.08-17Z"/><path class="cls-2" d="M230.36,13.85C218,6,207.76,22,208.09,33.36,188.64-11,138.63,44.25,226.5,82.78c6.59,6.17,9.36-46,9.32-51.1C235.88,25.6,235.61,17.94,230.36,13.85Z"/><path class="cls-2" d="M183.23,134.38c-20-2.6-13.13-30.7-25.94-41.74-5.78-6.38-16.6-5.33-18.59,3.91-9-6.43-16.75,6.79-14.66,14.9,4.42,20.83,40.15,32.71,58.51,25.37A1.3,1.3,0,1,0,183.23,134.38Zm-39.39-4.92c-25.5-9.4-18.81-39.3-5.62-30.1.25,11.26,8.52,7.91,2.28-1,1.47-11.79,14.05-8.81,18.34-.73,8.15,11.69,4.16,33.26,20,38.43C167,138.62,154.53,134.72,143.84,129.46Z"/><path class="cls-2" d="M299,53.59c-6.2.24-10.34,6-11.47,11.62-2.21-3.87-.8-8.68-2.46-12.74-7.08-13.75-18-2.22-15.33,9.36.49,2.34,1.49,66.17,4.84,46.09C286.53,104.56,321.92,57.61,299,53.59Zm4.78,12.21c-4,16.38-15.41,30.15-29.33,39.31L272.81,68c.25-5.78-3.41-19.31,5.93-18.65,7.83,3.63,1.7,15.35,8.86,19.75a1.36,1.36,0,0,0,2-.81C289.65,55.77,307.24,48.76,303.76,65.8Z"/><path class="cls-2" d="M38.47,178.18c.63-17.18-20.28-15.84-19,.32C10.66,165-9.34,176.61,5.07,189A77.69,77.69,0,0,0,38.9,208.28C43.81,213,37.64,181.37,38.47,178.18Zm-27.9,13.5c-22.55-16.88,4.81-26.79,11.8-4.43.54,1,2.05.13,1.55-.91q-.39-.83-.81-1.68c-5.11-7.56.81-22.73,10.67-15.81,6.09,9.29,3,26.76,5,38.11A77.78,77.78,0,0,1,10.57,191.68Z"/><path class="cls-2" d="M500.65,125.45c-.07-4.74-2.44-11.77-8.84-9.32-14,9.39,1.48,48.09,1.48,48.09s19.6-17.3,18.84-33.43C511.65,120.4,509.7,117.43,500.65,125.45Z"/><path class="cls-2" d="M437.43,38.84c-5.62-7.42-19.54-7.14-21.06,3.38C411.5,33,386,23.72,384.43,39.14c7.56,25.63,47.05,19,57.35,43.17C441.15,107.21,450.16,49.26,437.43,38.84ZM409.49,58.56c-47.73-18.7-10.26-41.82,7.8-11.2.56,1,1.94.12,1.5-.88-4.24-13,13.81-14.69,19-4.74,6.7,11.42,4.79,25.61,4.25,38.29C435.83,68.08,421.32,63.31,409.49,58.56Z"/><path class="cls-2" d="M76.63,96.79a31.44,31.44,0,0,0-7.57,8.71c-3.36-6.63-15.68-7.89-17.12.88,1.38,15.92-.42,32.26,2.35,48-.81,1.21,1,2.25,1.78,1.14,8.51-14.64,17.46-29.32,29.83-41.09C104.34,102.68,96,83.89,76.63,96.79Z"/><path class="cls-2" d="M24.18,288.2c-1.91-10.09,2.12-21.15-3-30.72C14.59,246,10.57,259,10.6,266c-9.24-8.44-14,5.24-5,12.48,1.55,2.45,26.25,25.49,25.63,20.12C28.47,295.37,25.27,292.46,24.18,288.2Z"/><path class="cls-2" d="M515,200.89c-.37-9.1-12.88-8.41-16.62-2,2.59-14.48-15.9-16.12-15.51-1.12,1.8,11.64,1.83,24-5.14,34.15a.73.73,0,0,0,.75,1.1C487.49,234.48,515.21,211.33,515,200.89ZM505.16,214a76.2,76.2,0,0,1-25.3,17.34,40.4,40.4,0,0,0,5.44-25.5c-.54-4.45-2.09-9.55.24-13.75,1.78-4,7.21-5.1,9.82-1.31,5.55,5-4,18.29.42,15.77C504.71,185.31,523.8,198.47,505.16,214Z"/><path class="cls-2" d="M347.79,1.76C342.69,4.83,341,10.42,340.3,16c-1.31-6.2-9.52-11.55-14.57-6.08-3.22,4,.14,10.15,1.47,14.28,3.51,11,6,22.2,9.8,33.08,0,13.35,24.51-32.39,23.7-35.93C365.48,11.52,361.45-5.52,347.79,1.76Z"/></g></g></g></svg>